<?xml version="1.0" standalone="no"?>
<!DOCTYPE svg PUBLIC "-//W3C//DTD SVG 20010904//EN"
 "http://www.w3.org/TR/2001/REC-SVG-20010904/DTD/svg10.dtd">
<svg version="1.0" xmlns="http://www.w3.org/2000/svg"
 width="102.000000pt" height="102.000000pt" viewBox="0 0 102.000000 102.000000"
 preserveAspectRatio="xMidYMid meet">
<metadata>
Created by potrace 1.14, written by Peter Selinger 2001-2017
</metadata>
<g transform="translate(0.000000,102.000000) scale(0.100000,-0.100000)"
fill="#000000" stroke="none">
<path d="M386 1004 c-117 -30 -236 -115 -302 -214 l-26 -39 62 -106 c55 -94
64 -104 75 -88 11 16 93 157 147 253 11 19 37 64 58 100 58 101 61 107 47 107
-7 0 -34 -6 -61 -13z"/>
<path d="M467 974 c-15 -27 -43 -76 -62 -109 -19 -33 -35 -63 -35 -67 0 -5
126 -8 280 -8 154 0 280 4 280 9 0 24 -128 134 -194 166 -73 36 -93 41 -186
51 l-56 6 -27 -48z"/>
<path d="M722 745 c26 -49 241 -421 248 -428 9 -10 26 31 40 98 21 93 3 231
-40 315 l-18 35 -120 0 c-118 1 -120 0 -110 -20z"/>
<path d="M25 669 c-36 -119 -26 -284 25 -379 l18 -35 121 0 c95 0 120 2 116
12 -6 17 -233 411 -251 437 -11 17 -14 13 -29 -35z"/>
<path d="M390 495 l0 -135 31 0 c23 0 30 4 28 18 -1 9 -1 29 0 45 1 27 1 27
77 27 108 0 143 24 144 98 0 13 -13 37 -29 53 -29 29 -31 29 -140 29 l-111 0
0 -135z m205 81 c21 -8 19 -63 -2 -75 -10 -5 -46 -9 -79 -10 -60 0 -62 0 -65
27 -9 63 -4 68 67 66 36 -1 71 -5 79 -8z"/>
<path d="M816 457 c-10 -17 -27 -48 -38 -67 -11 -19 -65 -113 -120 -208 -55
-95 -99 -175 -96 -177 9 -10 132 27 189 57 66 35 164 126 194 181 l18 33 -63
107 c-34 59 -63 107 -64 107 0 0 -9 -15 -20 -33z"/>
<path d="M90 221 c0 -20 123 -130 177 -159 63 -33 155 -59 218 -61 l40 -1 60
107 c33 59 62 111 63 115 2 4 -123 8 -277 8 -157 0 -281 -4 -281 -9z"/>
</g>
</svg>
