<svg width="66" height="66" viewBox="0 0 66 66" fill="none" xmlns="http://www.w3.org/2000/svg">
<path d="M63.2438 2.81746C62.6721 2.24157 61.9918 1.78447 61.2424 1.47253C60.4929 1.1606 59.689 1 58.8771 1C58.0652 1 57.2613 1.1606 56.5119 1.47253C55.7624 1.78447 55.0821 2.24157 54.5104 2.81746L41.5948 15.8433L10.1052 11.7881C10.1052 11.7881 7.76813 11.4194 6.78409 12.4025L3.09391 16.089C2.84939 16.294 2.67187 16.5673 2.58418 16.8739C2.4965 17.1805 2.50266 17.5063 2.60188 17.8094C2.84789 18.4238 4.56998 19.284 5.062 19.5298L26.9571 30.4666L18.1006 39.3143L17.2396 40.1745L6.04605 38.5769C5.71157 38.5109 5.36567 38.5329 5.04222 38.6406C4.71878 38.7483 4.42889 38.9381 4.20096 39.1914L1.49483 41.8948C1.12581 42.2635 0.387775 43.1237 1.98685 43.861L16.2555 49.7595C16.2555 49.7595 21.4218 62.4166 22.1598 64.0141C22.8979 65.6116 23.7589 64.8743 24.1279 64.5057L26.8341 61.8022C27.0876 61.5745 27.2776 61.2849 27.3854 60.9618C27.4932 60.6386 27.5152 60.2931 27.4491 59.9589L25.85 48.7764L26.711 47.9162L35.5675 39.1914L46.638 60.942C46.884 61.5564 47.7451 63.2768 48.3601 63.3997C48.6635 63.4988 48.9896 63.505 49.2965 63.4174C49.6034 63.3298 49.877 63.1524 50.0822 62.9082L53.7724 59.2216C54.7564 58.2385 54.3874 55.9037 54.3874 55.9037L50.2052 24.4452L63.2438 11.4194C64.3707 10.2709 65.0019 8.7267 65.0019 7.11843C65.0019 5.51015 64.3707 3.96599 63.2438 2.81746Z" stroke="#4E5358" stroke-width="2" stroke-linecap="round" stroke-linejoin="round"/>
</svg>
